<?xml version="1.0" standalone="no"?>
<!DOCTYPE svg PUBLIC "-//W3C//DTD SVG 20010904//EN"
 "http://www.w3.org/TR/2001/REC-SVG-20010904/DTD/svg10.dtd">
<svg version="1.0" xmlns="http://www.w3.org/2000/svg"
 width="500.000000pt" height="500.000000pt" viewBox="0 0 500.000000 500.000000"
 preserveAspectRatio="xMidYMid meet">
<metadata>
Created by potrace 1.14, written by Peter Selinger 2001-2017
</metadata>
<g transform="translate(0.000000,500.000000) scale(0.100000,-0.100000)"
fill="#000000" stroke="none">
<path d="M2340 4919 c-321 -18 -579 -85 -880 -226 -374 -176 -726 -477 -962
-823 -162 -237 -290 -528 -358 -815 -73 -309 -71 -806 5 -1121 93 -391 267
-736 523 -1040 204 -243 475 -455 754 -592 240 -117 409 -172 674 -218 145
-26 180 -28 404 -28 223 0 259 2 405 27 264 46 431 101 680 224 274 135 537
340 743 578 302 350 505 795 569 1245 24 172 24 576 0 744 -53 368 -195 723
-420 1045 -65 94 -75 106 -198 241 -90 100 -261 248 -383 331 -465 319 -981
461 -1556 428z m427 -234 c326 -33 668 -157 953 -347 132 -87 134 -89 273
-212 307 -272 542 -672 648 -1100 21 -85 35 -179 46 -317 16 -183 16 -211 1
-410 -13 -165 -24 -243 -48 -339 -17 -68 -32 -125 -34 -127 -5 -5 -103 -14
-236 -22 -96 -6 -133 -4 -160 6 -57 23 -370 195 -370 204 0 5 -6 9 -12 9 -7 0
-53 23 -103 51 -49 29 -124 71 -165 93 -96 54 -250 156 -250 168 0 4 -6 8 -13
8 -18 0 -136 80 -274 188 l-123 95 0 451 0 451 -30 115 c-38 144 -48 170 -70
170 -24 0 -35 -16 -51 -70 l-14 -45 -2 45 c-6 112 -28 253 -54 347 -58 207
-152 396 -204 409 -31 8 -68 -14 -88 -53 -8 -15 -35 -66 -60 -113 -60 -111
-125 -307 -137 -412 -6 -46 -10 -134 -10 -195 l0 -113 23 10 c12 6 69 14 127
18 l105 7 -3 165 c-3 178 12 657 21 666 12 12 47 -23 80 -80 66 -116 133 -312
162 -477 20 -114 22 -278 4 -290 -11 -7 -11 -11 -2 -17 17 -11 -1 -36 -21 -29
-9 4 -16 1 -16 -6 0 -8 -3 -8 -9 2 -9 13 -74 30 -123 31 -25 0 -28 -4 -30 -32
l-1 -33 -4 33 -4 32 -102 0 c-57 0 -126 -6 -154 -13 l-52 -14 -32 101 c-36
115 -44 128 -73 124 -22 -3 -29 -20 -75 -190 -20 -73 -21 -100 -21 -576 l0
-499 -99 -77 c-55 -42 -107 -79 -117 -83 -9 -3 -28 -17 -42 -30 -14 -13 -35
-29 -47 -36 -12 -7 -52 -34 -89 -62 -37 -27 -107 -75 -155 -105 -49 -30 -113
-71 -142 -91 -64 -43 -106 -68 -173 -103 -47 -25 -50 -25 -75 -10 -36 24 -365
269 -430 321 -29 24 -86 62 -125 85 -39 23 -95 57 -124 75 l-52 35 0 91 c0
286 58 550 187 847 258 596 824 1068 1474 1229 227 57 523 74 796 46z m-628
-1023 c17 -65 31 -126 31 -135 0 -15 -12 -17 -86 -17 l-87 0 6 43 c9 66 54
227 68 244 12 13 14 13 25 -1 6 -9 26 -70 43 -134z m680 116 c24 -79 61 -227
61 -247 0 -20 -5 -21 -91 -21 -81 0 -90 2 -85 18 3 9 19 66 36 125 49 173 59
188 79 125z m-342 -210 c-3 -8 -6 -5 -6 6 -1 11 2 17 5 13 3 -3 4 -12 1 -19z
m-307 -153 l0 -85 -85 0 -85 0 0 85 0 85 85 0 85 0 0 -85z m710 0 l0 -85 -90
0 -90 0 0 85 0 85 90 0 90 0 0 -85z m-203 -32 c-2 -16 -4 -5 -4 22 0 28 2 40
4 28 2 -13 2 -35 0 -50z m-168 -56 l22 -24 -61 1 -61 1 26 22 c33 29 46 29 74
0z m-339 -21 c0 -19 -167 -28 -174 -9 -6 14 23 19 112 22 48 1 62 -2 62 -13z
m710 -7 c0 -19 -4 -21 -37 -15 -21 3 -62 6 -90 6 -40 0 -53 4 -53 15 0 12 17
15 90 15 85 0 90 -1 90 -21z m-263 -11 c-3 -8 -6 -5 -6 6 -1 11 2 17 5 13 3
-3 4 -12 1 -19z m44 -18 c18 0 19 -11 18 -327 -1 -299 -2 -323 -14 -273 -8 30
-14 83 -15 117 0 33 -8 112 -19 175 -10 62 -22 133 -25 157 -4 24 -15 68 -26
99 -11 31 -20 57 -20 58 0 1 16 0 35 -3 29 -4 35 -1 36 14 1 16 2 16 6 1 2
-10 13 -18 24 -18z m-92 -89 c26 -96 26 -92 -5 -81 -33 13 -155 13 -188 0 -25
-9 -26 -8 -20 18 16 72 38 143 45 147 4 3 4 -9 -2 -27 -5 -18 -9 -34 -9 -35 0
-2 32 -3 71 -3 l71 0 -7 42 c-13 73 20 28 44 -61z m-399 44 l0 -45 -85 0 -85
0 0 45 0 45 85 0 85 0 0 -45z m710 0 l0 -45 -90 0 -90 0 0 45 0 45 90 0 90 0
0 -45z m-712 -212 l3 -153 -86 0 -85 0 -2 43 c-1 23 -2 89 -3 147 l-2 105 26
7 c14 3 53 5 86 5 l60 -2 3 -152z m712 2 l0 -155 -90 0 -90 0 0 155 0 155 90
0 90 0 0 -155z m-320 71 l35 -13 17 -109 c9 -60 17 -130 17 -156 l1 -48 -37
-2 c-37 -1 -37 -1 -5 -5 l32 -4 0 -598 0 -597 -76 10 c-47 6 -105 6 -154 0
l-78 -9 -4 30 c-2 16 -3 284 -3 595 l0 565 35 6 35 6 -37 2 -38 1 0 46 c0 54
28 231 41 255 18 34 151 49 219 25z m-406 -242 c14 -5 16 -33 16 -210 l0 -204
-85 0 -85 0 0 83 c0 46 -3 138 -6 205 l-7 121 34 4 c58 7 117 7 133 1z m726
-204 l0 -210 -84 0 -83 0 -7 61 c-7 72 -8 343 -1 350 2 3 43 6 90 7 l85 2 0
-210z m-170 -365 c45 -254 57 -300 89 -371 23 -47 55 -97 78 -120 22 -21 88
-92 146 -156 82 -92 109 -129 123 -170 9 -29 19 -59 22 -65 3 -10 -45 -13
-221 -13 l-225 0 -7 33 c-9 41 -39 99 -59 116 -14 12 -16 73 -15 545 0 292 4
522 8 511 5 -11 32 -150 61 -310z m302 245 c55 -44 138 -106 184 -136 l84 -56
0 -65 c0 -60 -1 -63 -18 -51 -73 53 -276 209 -314 241 -46 38 -48 41 -48 93 0
30 3 54 6 54 4 0 51 -36 106 -80z m-756 -1010 c-13 -16 -30 -52 -37 -80 l-13
-50 -218 0 c-243 0 -228 -6 -203 76 16 56 56 106 220 275 118 122 168 210 180
314 7 57 65 380 82 455 4 19 9 -186 11 -463 l2 -499 -24 -28z m-276 970 c0
-37 -4 -43 -47 -70 -26 -17 -52 -30 -59 -30 -7 0 -14 -4 -16 -9 -1 -5 -24 -25
-50 -45 l-48 -36 0 34 c0 32 8 41 103 115 56 43 105 80 110 80 4 1 7 -17 7
-39z m1018 -94 c61 -48 62 -50 62 -98 l0 -50 -52 43 c-29 24 -61 51 -71 61
-10 10 -22 18 -27 18 -6 0 -10 23 -10 51 0 57 -9 60 98 -25z m-828 -93 c0 -69
-5 -155 -11 -190 l-11 -63 -73 0 -72 0 -7 60 c-8 65 -7 300 1 313 2 4 42 7 89
7 l84 0 0 -127z m710 -63 l0 -190 -44 0 c-52 0 -45 -17 -86 190 -17 85 -33
163 -36 173 -5 15 3 17 80 17 l86 0 0 -190z m-901 -135 l2 -315 -50 -53 -51
-52 0 318 c0 204 -4 317 -10 317 -6 0 -10 -116 -10 -327 l0 -326 -41 -53 c-23
-30 -45 -51 -50 -48 -5 3 -9 156 -9 340 0 216 -4 334 -10 334 -6 0 -10 -117
-10 -331 l0 -331 -22 6 c-13 3 -29 6 -35 6 -10 0 -13 67 -13 300 0 193 -4 300
-10 300 -6 0 -10 -104 -10 -291 l0 -291 -27 7 c-16 3 -41 14 -58 24 l-30 17
-3 223 c-1 142 -6 220 -12 216 -6 -4 -10 -90 -10 -216 0 -115 -3 -209 -8 -209
-4 0 -18 7 -30 16 -21 15 -22 21 -22 189 0 107 4 176 10 180 6 4 8 10 6 14 -5
7 73 64 171 125 46 28 58 32 47 15 -4 -7 1 -7 16 1 14 7 18 15 12 19 -6 4 5
17 26 31 20 14 69 48 107 76 55 40 118 80 131 84 1 0 3 -142 3 -315z m-239
213 c0 -27 -7 -37 -35 -56 l-35 -22 0 32 c0 23 8 39 28 55 36 30 42 29 42 -9z
m1180 -233 c0 -163 -4 -255 -10 -255 -6 0 -10 92 -10 255 0 163 4 255 10 255
6 0 10 -92 10 -255z m250 179 c36 -27 105 -76 155 -110 148 -99 229 -154 246
-167 8 -7 22 -13 29 -15 7 -2 25 -11 39 -21 37 -26 247 -145 304 -172 44 -21
47 -26 47 -61 0 -21 -2 -38 -5 -38 -3 0 -38 18 -78 41 -40 23 -80 43 -89 44
-36 7 -161 80 -165 95 -3 9 -19 22 -36 28 -81 29 -457 276 -457 300 0 6 -8 12
-18 12 -10 0 -28 7 -40 16 -18 12 -22 25 -22 66 0 39 3 48 13 41 6 -5 41 -32
77 -59z m-137 -22 l27 -26 0 -269 0 -268 -61 63 -60 63 -6 260 -6 260 39 -29
c21 -16 51 -41 67 -54z m397 -7 c8 -7 35 -24 60 -37 25 -14 106 -62 180 -107
74 -44 138 -81 142 -81 4 0 8 -32 8 -70 l0 -71 -27 16 c-45 24 -335 205 -417
260 l-75 50 0 63 -1 63 58 -37 c31 -20 64 -42 72 -49z m-1780 22 c0 -29 -6
-36 -54 -65 -30 -17 -57 -32 -60 -32 -3 0 -6 10 -6 23 0 15 18 35 58 64 31 24
58 43 60 43 1 0 2 -15 2 -33z m1477 -373 l3 -289 -25 28 -25 28 0 276 0 275
23 -14 c22 -15 22 -17 24 -304z m-1609 280 c-2 -16 -14 -31 -33 -41 -16 -9
-35 -19 -41 -22 -7 -3 -26 -17 -44 -30 l-32 -23 4 28 c2 22 17 38 63 71 70 50
88 53 83 17z m1699 -59 c40 -29 41 -31 46 -100 11 -138 6 -426 -6 -430 -7 -2
-33 -6 -59 -10 l-48 -6 0 296 c0 242 2 295 13 288 7 -4 32 -21 54 -38z m-1867
-49 c0 -17 -7 -27 -22 -32 -13 -4 -25 -10 -28 -13 -3 -4 -45 -30 -95 -59 -84
-48 -90 -50 -93 -30 -2 12 2 25 10 29 7 4 58 35 113 68 55 33 103 60 108 61 4
0 7 -11 7 -24z m2048 -70 l32 -17 -2 -186 -3 -187 -60 -13 c-33 -7 -65 -10
-71 -8 -8 2 -12 77 -13 245 l-1 241 43 -29 c23 -16 57 -37 75 -46z m-2008 39
c-15 -17 -7 -19 21 -5 18 10 19 6 19 -150 l0 -160 -32 21 c-18 11 -45 28 -60
37 -27 17 -28 19 -28 117 l0 100 43 27 c48 32 54 34 37 13z m750 2 c0 -26 -60
-132 -99 -177 l-40 -45 -1 118 0 117 70 0 c52 0 70 -3 70 -13z m740 -79 l0
-93 -25 37 c-25 37 -40 70 -55 121 -8 27 -8 27 36 27 l44 0 0 -92z m1156 -57
c121 -66 124 -68 92 -74 -18 -4 -57 -13 -87 -22 l-54 -15 -71 38 c-67 35 -71
39 -74 75 -7 87 32 87 194 -2z m-2746 -18 l0 -74 -37 27 c-21 16 -48 37 -61
48 -22 20 -22 20 -50 -1 -38 -28 -153 -85 -159 -79 -3 2 15 14 39 26 23 13 80
45 125 72 46 27 88 46 94 42 7 -4 9 -3 6 3 -4 6 4 11 18 11 24 0 25 -2 25 -75z
m2332 -23 c5 0 7 -46 6 -102 l-3 -101 -60 -17 c-33 -9 -72 -20 -87 -24 l-28
-6 0 174 0 175 82 -49 c45 -28 85 -50 90 -50z m-3167 -10 c0 -8 -8 -16 -17
-18 -13 -2 -18 3 -18 18 0 15 5 20 18 18 9 -2 17 -10 17 -18z m3350 -107 c-1
-8 -92 -55 -132 -67 -21 -7 -22 -4 -25 77 l-3 85 80 -44 c44 -24 80 -47 80
-51z m-2854 41 c-22 -16 -387 -194 -426 -208 -48 -17 7 15 90 53 50 23 146 70
215 105 126 64 164 80 121 50z m3434 -199 c44 -16 83 -31 87 -34 3 -3 1 -18
-5 -33 l-12 -27 -67 24 c-37 13 -93 35 -125 48 -266 113 -253 105 -253 155 l0
37 147 -71 c82 -40 184 -84 228 -99z m-822 8 c9 -9 -13 -34 -24 -27 -14 8 -11
34 4 34 8 0 17 -3 20 -7z m-1143 -135 c0 -62 -3 -143 -6 -179 l-7 -67 -35 10
c-19 5 -62 8 -95 6 l-60 -3 6 95 c7 114 19 159 54 201 31 37 55 48 106 48 l37
1 0 -112z m203 93 c15 -10 35 -28 44 -41 24 -34 43 -125 43 -210 l0 -75 -95
-1 -95 -1 0 173 0 174 38 0 c20 0 50 -8 65 -19z m-134 -161 c11 -133 10 -173
-3 -280 -9 -68 -16 -156 -17 -195 -1 -50 -3 -63 -9 -45 -17 54 -8 703 10 683
4 -4 13 -78 19 -163z m1816 71 c0 -34 -30 -51 -51 -29 -25 24 -10 60 24 56 21
-2 27 -8 27 -27z m-165 -11 c0 -5 -4 -10 -10 -10 -5 0 -10 5 -10 10 0 6 5 10
10 10 6 0 10 -4 10 -10z m-3190 -30 c0 -5 -4 -10 -10 -10 -5 0 -10 5 -10 10 0
6 5 10 10 10 6 0 10 -4 10 -10z m1045 -40 c4 -6 -37 -10 -115 -10 -78 0 -119
4 -115 10 4 6 53 10 115 10 62 0 111 -4 115 -10z m170 1 c32 -7 21 -9 -57 -10
-60 -1 -98 3 -98 9 0 12 98 12 155 1z m755 -1 c0 -6 -40 -10 -100 -10 -60 0
-100 4 -100 10 0 6 40 10 100 10 60 0 100 -4 100 -10z m250 0 c0 -6 -47 -10
-121 -10 -77 0 -118 4 -114 10 4 6 55 10 121 10 69 0 114 -4 114 -10z m-2520
-30 c0 -5 -5 -10 -11 -10 -5 0 -7 5 -4 10 3 6 8 10 11 10 2 0 4 -4 4 -10z
m1308 -35 c16 -4 22 -13 22 -34 0 -15 -3 -30 -6 -33 -6 -7 -106 15 -175 38
-40 13 -45 18 -42 37 l5 23 86 -13 c48 -7 97 -15 110 -18z m1220 8 c3 -18 -6
-24 -50 -37 -129 -37 -163 -44 -170 -32 -7 10 -11 55 -5 57 32 8 205 36 212
35 6 -2 11 -12 13 -23z m-275 -93 c-4 -4 -45 -16 -91 -28 l-83 -20 3 46 3 46
85 16 85 15 3 -34 c2 -18 0 -37 -5 -41z m-790 55 c43 -8 81 -15 83 -15 2 0 4
-19 4 -43 l0 -43 -87 21 -88 22 -3 36 c-2 20 0 37 5 37 4 0 43 -7 86 -15z
m-508 -35 l-140 -6 185 -3 c102 -2 189 -3 195 -1 5 1 37 -4 70 -10 48 -9 61
-15 62 -31 2 -18 -8 -19 -273 -19 l-274 0 -2 38 -1 37 -4 -37 -4 -38 -338 0
-339 0 -16 25 c-9 13 -16 27 -16 30 0 3 44 6 98 7 l97 2 -90 6 c-49 3 140 6
420 6 281 0 447 -3 370 -6z m1368 -25 c18 4 130 9 250 12 l217 4 0 -30 0 -31
-270 0 c-243 0 -302 5 -255 24 8 3 16 18 16 33 2 25 2 26 6 4 4 -20 8 -22 36
-16z m937 25 l-415 -5 403 -3 403 -2 -18 -30 -17 -30 -406 0 -405 0 0 33 0 32
-175 5 c-96 3 100 6 435 6 569 -1 582 -1 195 -6z m-1828 -60 c101 -19 99 -17
96 -123 l-3 -92 -90 0 -90 0 -2 140 c-2 126 -1 137 12 114 11 -21 26 -29 77
-39z m158 -24 c0 -19 -4 -38 -10 -41 -6 -4 -10 10 -10 34 0 23 5 41 10 41 6 0
10 -15 10 -34z m470 -6 c0 -22 -4 -40 -9 -40 -5 0 -11 18 -13 40 -2 28 0 40 9
40 8 0 13 -14 13 -40z m172 -75 l-3 -115 -90 0 -89 0 0 41 c0 28 6 46 17 54
13 9 16 25 14 57 l-2 43 68 16 c37 9 73 17 78 18 6 1 9 -41 7 -114z m-685 28
c-3 -10 -5 -2 -5 17 0 19 2 27 5 18 2 -10 2 -26 0 -35z m883 33 c19 -1 -13 -3
-72 -4 -60 -1 -108 1 -108 6 0 6 96 6 180 -2z m884 2 c-3 -4 -182 -7 -397 -6
-363 2 -374 3 -152 8 351 7 554 7 549 -2z m266 2 c-17 -11 -210 -14 -210 -2 0
4 51 8 113 10 77 2 107 -1 97 -8z m-1845 -40 c3 -5 -3 -10 -14 -10 -12 0 -21
5 -21 10 0 6 6 10 14 10 8 0 18 -4 21 -10z m205 0 c0 -5 -9 -10 -21 -10 -11 0
-17 5 -14 10 3 6 13 10 21 10 8 0 14 -4 14 -10z m-302 -65 c52 -7 53 -8 50
-39 l-3 -31 -72 -3 -73 -3 0 56 c0 55 0 55 23 41 12 -8 46 -17 75 -21z m402
-37 l0 -38 -70 0 -70 0 0 38 0 37 70 1 70 1 0 -39z m724 7 c9 -24 -4 -45 -29
-45 -25 0 -38 21 -29 45 4 8 16 15 29 15 13 0 25 -7 29 -15z m-1244 -65 c0 -5
-15 -11 -32 -12 l-33 -1 33 -4 c26 -4 32 -9 32 -29 0 -21 -5 -24 -35 -24 -32
0 -35 2 -35 30 0 30 -1 30 -55 30 -30 0 -55 5 -55 10 0 6 37 10 90 10 53 0 90
-4 90 -10z m170 0 c0 -6 -32 -10 -75 -10 -43 0 -75 4 -75 10 0 6 32 10 75 10
43 0 75 -4 75 -10z m350 0 c0 -6 -30 -10 -70 -10 -40 0 -70 4 -70 10 0 6 30
10 70 10 40 0 70 -4 70 -10z m190 0 c0 -6 -37 -10 -90 -10 -53 0 -90 4 -90 10
0 6 37 10 90 10 53 0 90 -4 90 -10z m-790 -39 c0 -28 -15 -34 -60 -26 -30 5
-40 11 -40 26 0 16 7 19 50 19 43 0 50 -3 50 -19z m248 -3 c-4 -27 -36 -34
-105 -23 -34 5 -43 10 -43 26 0 17 7 19 76 19 72 0 75 -1 72 -22z m352 -3 c0
-26 -1 -26 -67 -23 -62 3 -68 5 -71 26 -3 21 0 22 67 22 69 0 71 -1 71 -25z
m190 1 c0 -24 -1 -25 -87 -23 -83 2 -88 3 -91 25 -3 21 -1 22 87 22 90 0 91 0
91 -24z m-540 -80 l0 -43 -67 -5 c-38 -3 -116 -6 -175 -7 l-108 -2 0 50 0 51
175 0 175 0 0 -44z m550 0 c0 -26 -5 -46 -12 -48 -7 -3 -83 -4 -168 -3 l-155
1 -3 47 -3 47 170 0 171 0 0 -44z m-1592 -8 c-6 -18 -28 -21 -28 -4 0 9 7 16
16 16 9 0 14 -5 12 -12z m1062 -73 c11 -13 -12 -15 -195 -15 -183 0 -206 2
-195 15 10 12 45 15 195 15 150 0 185 -3 195 -15z m550 0 c11 -13 -11 -15
-185 -15 -174 0 -196 2 -185 15 10 12 44 15 185 15 141 0 175 -3 185 -15z
m780 0 c18 -22 3 -55 -25 -55 -29 0 -47 27 -34 52 12 22 42 23 59 3z m-1312
-47 l-3 -23 -208 0 c-115 0 -211 4 -214 8 -3 4 -2 14 1 22 4 13 41 15 216 15
l211 0 -3 -22z m557 -3 c0 -19 -7 -20 -209 -20 -166 0 -210 3 -214 14 -10 26
26 31 223 28 193 -2 200 -3 200 -22z m-563 -60 l-4 -25 -207 2 c-205 3 -206 3
-209 26 l-3 22 214 0 214 0 -5 -25z m568 16 c0 -34 -13 -41 -84 -43 l-71 -2
74 -5 75 -6 43 -63 c24 -35 43 -70 43 -78 0 -12 -45 -14 -290 -14 -334 0 -316
-7 -250 98 l40 62 108 2 107 2 -106 3 c-104 4 -107 4 -112 28 l-4 25 213 0
c123 0 214 -4 214 -9z m-1330 -41 c0 -5 -4 -10 -10 -10 -5 0 -10 5 -10 10 0 6
5 10 10 10 6 0 10 -4 10 -10z m792 -67 c20 -37 27 -60 22 -78 l-6 -25 -274 0
c-199 0 -274 3 -274 11 0 7 19 43 42 81 l43 68 209 -2 210 -3 28 -52z m917
-63 c33 0 51 -4 46 -9 -16 -14 -224 -88 -310 -109 -179 -45 -299 -57 -550 -57
-268 0 -412 18 -614 76 -133 38 -151 48 -86 48 28 0 58 -6 69 -14 17 -13 102
-15 570 -15 303 0 556 4 562 8 17 11 36 51 29 62 -8 14 41 19 139 14 49 -2
114 -4 145 -4z m-1639 -20 c0 -5 -2 -10 -4 -10 -3 0 -8 5 -11 10 -3 6 -1 10 4
10 6 0 11 -4 11 -10z"/>
<path d="M2414 2975 c-14 -14 -36 -25 -49 -25 -19 0 -24 -7 -30 -41 -4 -22 -5
-42 -2 -45 10 -10 39 10 53 38 32 61 117 63 154 4 21 -34 45 -51 54 -38 2 4 1
23 -3 42 -5 28 -12 36 -33 38 -14 2 -36 14 -49 28 -29 31 -63 31 -95 -1z"/>
<path d="M2407 2814 c-4 -4 -7 -18 -7 -31 0 -18 5 -23 26 -23 22 0 25 4 22 27
-3 27 -26 41 -41 27z"/>
<path d="M2477 2814 c-4 -4 -7 -18 -7 -31 0 -18 5 -23 26 -23 22 0 25 4 22 27
-3 27 -26 41 -41 27z"/>
<path d="M2720 1580 c0 -28 3 -30 35 -30 32 0 35 2 35 30 0 28 -3 30 -35 30
-32 0 -35 -2 -35 -30z"/>
<path d="M1480 2070 c-9 -6 -10 -10 -3 -10 6 0 15 5 18 10 8 12 4 12 -15 0z"/>
<path d="M1028 1223 c67 -2 177 -2 245 0 67 1 12 3 -123 3 -135 0 -190 -2
-122 -3z"/>
</g>
</svg>
